<?xml version="1.0" encoding="UTF-8" standalone="no"?>
<svg
   height="24"
   viewBox="0 0 24 24"
   width="24"
   version="1.1"
   id="svg3"
   sodipodi:docname="applications-bus.svg"
   inkscape:version="1.4.2 (ebf0e940d0, 2025-05-08)"
   xmlns:inkscape="http://www.inkscape.org/namespaces/inkscape"
   xmlns:sodipodi="http://sodipodi.sourceforge.net/DTD/sodipodi-0.dtd"
   xmlns="http://www.w3.org/2000/svg"
   xmlns:svg="http://www.w3.org/2000/svg">
  <defs
     id="defs3" />
  <sodipodi:namedview
     id="namedview3"
     pagecolor="#ffffff"
     bordercolor="#666666"
     borderopacity="1.0"
     inkscape:showpageshadow="2"
     inkscape:pageopacity="0.0"
     inkscape:pagecheckerboard="0"
     inkscape:deskcolor="#d1d1d1"
     inkscape:zoom="23.305061"
     inkscape:cx="9.568737"
     inkscape:cy="8.9894636"
     inkscape:window-width="2560"
     inkscape:window-height="995"
     inkscape:window-x="0"
     inkscape:window-y="0"
     inkscape:window-maximized="1"
     inkscape:current-layer="svg3" />
  <path
     d="M0 0h24v24H0V0zm0 0h24v24H0V0z"
     fill="none"
     id="path1" />
  <path
     id="rect7"
     style="fill-opacity:0.298039;stroke:#000000;stroke-width:2;stroke-linecap:round;stroke-linejoin:bevel;stroke-miterlimit:0"
     d="m 10.766557,17 h 2.467325 c 0.424673,0 0.766557,0.336024 0.766557,0.753417 v 2.493608 c 0,0.417393 -0.341884,0.753417 -0.766557,0.753417 H 10.766557 C 10.341884,21.000442 10,20.664418 10,20.247025 V 17.753417 C 10,17.336024 10.341884,17 10.766557,17 Z"
     sodipodi:nodetypes="sssssssss" />
  <path
     id="path8"
     style="fill:none;stroke:#000000;stroke-width:2;stroke-linecap:square;stroke-linejoin:round;stroke-dasharray:none;stroke-opacity:1"
     d="M 8.5 8.4863281 L 8.5 11.103516 L 8.5 8.4863281 z M 15.5 8.4863281 L 15.5 11.103516 L 15.5 8.4863281 z M 2.9863281 12 L 21.013672 12 L 2.9863281 12 z M 5 12.986328 L 5 15.578125 L 5 12.986328 z M 12 12.986328 L 12 15.578125 L 12 12.986328 z M 19 12.986328 L 19 15.578125 L 19 12.986328 z " />
  <path
     id="rect8"
     style="fill-opacity:0.298039;stroke:#000000;stroke-width:2;stroke-linecap:round;stroke-linejoin:bevel;stroke-miterlimit:0"
     d="m 17.766557,17 h 2.467325 c 0.424673,0 0.766557,0.336024 0.766557,0.753417 v 2.493608 c 0,0.417393 -0.341884,0.753417 -0.766557,0.753417 H 17.766557 C 17.341884,21.000442 17,20.664418 17,20.247025 V 17.753417 C 17,17.336024 17.341884,17 17.766557,17 Z"
     sodipodi:nodetypes="sssssssss" />
  <path
     id="rect9"
     style="fill-opacity:0.298039;stroke:#000000;stroke-width:2;stroke-linecap:round;stroke-linejoin:bevel;stroke-miterlimit:0"
     d="m 3.7665568,17 h 2.4673256 c 0.4246724,0 0.7665568,0.336024 0.7665568,0.753417 v 2.493608 c 0,0.417393 -0.3418844,0.753417 -0.7665568,0.753417 H 3.7665568 C 3.3418843,21.000442 3,20.664418 3,20.247025 V 17.753417 C 3,17.336024 3.3418843,17 3.7665568,17 Z" />
  <path
     id="rect10"
     style="fill-opacity:0.298039;stroke:#000000;stroke-width:2;stroke-linecap:round;stroke-linejoin:bevel;stroke-miterlimit:0"
     d="m 7.2665568,3 h 2.4673256 c 0.4246726,0 0.7665566,0.3360238 0.7665566,0.7534165 v 2.493609 c 0,0.4173928 -0.341884,0.7534165 -0.7665566,0.7534165 H 7.2665568 C 6.8418843,7.000442 6.5,6.6644183 6.5,6.2470255 V 3.7534165 C 6.5,3.3360238 6.8418843,3 7.2665568,3 Z" />
  <path
     id="rect11"
     style="fill-opacity:0.298039;stroke:#000000;stroke-width:2;stroke-linecap:round;stroke-linejoin:bevel;stroke-miterlimit:0"
     d="m 14.266557,3 h 2.467325 c 0.424673,0 0.766557,0.3360238 0.766557,0.7534165 v 2.493609 c 0,0.4173928 -0.341884,0.7534165 -0.766557,0.7534165 H 14.266557 C 13.841884,7.000442 13.5,6.6644183 13.5,6.2470255 V 3.7534165 C 13.5,3.3360238 13.841884,3 14.266557,3 Z" />
</svg>
