<?xml version="1.0" encoding="UTF-8" standalone="no"?>
<svg
   width="300"
   height="114"
   viewBox="0 0 300 114"
   fill="none"
   version="1.1"
   id="svg17"
   sodipodi:docname="qsoc_logo_roboto_bold_outlined.svg"
   xmlns:inkscape="http://www.inkscape.org/namespaces/inkscape"
   xmlns:sodipodi="http://sodipodi.sourceforge.net/DTD/sodipodi-0.dtd"
   xmlns="http://www.w3.org/2000/svg"
   xmlns:svg="http://www.w3.org/2000/svg">
  <defs
     id="defs17" />
  <sodipodi:namedview
     id="namedview17"
     pagecolor="#ffffff"
     bordercolor="#000000"
     borderopacity="0.25"
     inkscape:showpageshadow="2"
     inkscape:pageopacity="0.0"
     inkscape:pagecheckerboard="0"
     inkscape:deskcolor="#d1d1d1" />
  <title
     id="title1">QSoC Quick System on Chip Studio logo</title>
  <desc
     id="desc1">Square monochrome pixel chip icon with detached dash pins and Roboto Bold wordmark.</desc>
  <style
     id="style1">
    .brand-text { font-family: 'Roboto', Arial, sans-serif; font-weight: 700; fill: #22292C; }
    .chip { fill: #0B8F8E; }
    .eye { fill: #FFFFFF; }
  </style>
  <!-- Left pixel chip icon: 3 detached dash pins per side -->
  <g
     id="pixel-chip"
     class="chip">
    <!-- chip body -->
    <path
       id="rect1"
       d="M 28,28 H 96 V 96 H 28 Z" />
    <!-- top pins -->
    <path
       id="rect2"
       d="m 34,12 h 10 v 8 H 34 Z" />
    <path
       id="rect3"
       d="m 57,12 h 10 v 8 H 57 Z" />
    <path
       id="rect4"
       d="m 80,12 h 10 v 8 H 80 Z" />
    <!-- bottom pins -->
    <path
       id="rect5"
       d="m 34,104 h 10 v 8 H 34 Z" />
    <path
       id="rect6"
       d="m 57,104 h 10 v 8 H 57 Z" />
    <path
       id="rect7"
       d="m 80,104 h 10 v 8 H 80 Z" />
    <!-- left pins -->
    <path
       id="rect8"
       d="m 8,34 h 10 v 8 H 8 Z" />
    <path
       id="rect9"
       d="m 8,58 h 10 v 8 H 8 Z" />
    <path
       id="rect10"
       d="m 8,82 h 10 v 8 H 8 Z" />
    <!-- right pins -->
    <path
       id="rect11"
       d="m 106,34 h 10 v 8 h -10 z" />
    <path
       id="rect12"
       d="m 106,58 h 10 v 8 h -10 z" />
    <path
       id="rect13"
       d="m 106,82 h 10 v 8 h -10 z" />
  </g>
  <!-- eyes: pure white, no highlights -->
  <g
     id="eyes"
     class="eye">
    <path
       id="rect14"
       d="m 43,52 h 9 v 11 h -9 z" />
    <path
       id="rect15"
       d="m 72,52 h 9 v 11 h -9 z" />
  </g>
  <!-- Right wordmark, Roboto Bold -->
  <g
     id="wordmark"
     class="brand-text">
    <path
       d="m 169.72559,51.399414 -5.00977,4.456055 -8.14746,-6.56543 q -1.42383,0.237305 -2.95313,0.237305 -7.22461,0 -11.8125,-5.036133 -4.58789,-5.036133 -4.58789,-13.816406 v -1.713868 q 0,-8.780273 4.56153,-13.816406 4.56152,-5.0625 11.78613,-5.0625 7.25098,0 11.8125,5.0625 4.56152,5.036133 4.56152,13.816406 v 1.713868 q 0,5.326172 -1.74023,9.333984 -1.74024,4.007813 -4.79883,6.380859 z M 161.9209,28.908203 q 0,-6.011719 -2.18848,-9.149414 -2.18847,-3.137695 -6.16992,-3.137695 -3.95508,0 -6.14355,3.111328 -2.16211,3.084961 -2.18848,9.043945 v 1.898438 q 0,5.985351 2.18848,9.175781 2.21484,3.164062 6.19628,3.164062 3.98145,0 6.11719,-3.137695 2.16211,-3.137695 2.18848,-9.070312 z m 32.02363,10.019531 q 0,-1.924804 -1.31836,-3.190429 -1.31836,-1.291993 -6.40723,-2.926758 -5.0625,-1.661133 -8.7539,-4.271485 -3.87598,-2.71582 -3.87598,-7.725585 0,-4.825196 3.98145,-7.778321 3.98144,-2.953125 10.2041,-2.953125 6.38086,0 10.23047,3.348633 3.84961,3.322266 3.84961,8.490234 h -7.91016 q 0,-2.425781 -1.55566,-3.981445 -1.55567,-1.555664 -4.7461,-1.555664 -3.11133,0 -4.64062,1.318359 -1.50293,1.291993 -1.50293,3.137696 0,1.898437 1.95117,3.164062 1.95117,1.265625 5.66895,2.399414 6.30175,1.924805 9.51855,4.825196 3.24316,2.90039 3.24316,7.646484 0,5.036133 -3.79687,7.857422 -3.79688,2.794922 -10.125,2.794922 -3.82324,0 -7.38281,-1.344727 -3.55957,-1.344726 -5.85352,-4.139648 -2.29394,-2.794922 -2.29394,-7.145508 h 7.93652 q 0,3.506836 2.08301,4.930664 2.10937,1.423828 5.51074,1.423828 3.05859,0 4.50879,-1.239258 1.47656,-1.239258 1.47656,-3.084961 z m 9.8752,-4.456054 q 0,-6.222657 3.5332,-10.362305 3.5332,-4.166016 9.9668,-4.166016 6.51269,0 10.01953,4.166016 3.50683,4.139648 3.50683,10.362305 v 0.553711 q 0,6.222656 -3.50683,10.362304 -3.50684,4.139649 -9.9668,4.139649 -6.40723,0 -9.94043,-4.03418 -3.50684,-4.03418 -3.6123,-10.125 z m 7.64648,0.553711 q 0,3.480468 1.31836,5.932617 1.34473,2.425781 4.58789,2.425781 3.19043,0 4.50879,-2.425781 1.34473,-2.425781 1.34473,-6.486328 0,-3.401368 -1.34473,-5.879883 -1.31836,-2.504883 -4.56152,-2.504883 -3.2168,0 -4.53516,2.478516 -1.31836,2.478515 -1.31836,6.459961 z m 45.12813,1.186523 h 7.91015 q -0.3955,5.853516 -4.40332,9.597656 -3.98144,3.717774 -11.04785,3.717774 -7.38281,0 -11.62793,-4.957032 -4.24512,-4.983398 -4.24512,-13.5 V 28.56543 q 0,-8.516602 4.35059,-13.5 4.35059,-5.009766 11.60156,-5.009766 7.19825,0 11.02149,3.849609 3.82324,3.823243 4.37695,9.729493 h -7.91016 q -0.26367,-3.427735 -1.9248,-5.247071 -1.63477,-1.845703 -5.56348,-1.845703 -7.69922,0 -7.91015,11.364258 v 3.164062 q 0,5.958985 1.79297,8.964844 1.81933,3.00586 6.03808,3.00586 3.74414,0 5.48438,-1.6875 1.7666,-1.713868 2.05664,-5.141602 z"
       id="text15"
       style="font-size:54px;letter-spacing:-1.7"
       aria-label="QSoC" />
    <path
       d="m 151.43359,80.066406 -2.22656,1.980469 -3.62109,-2.917969 q -0.63282,0.105469 -1.3125,0.105469 -3.21094,0 -5.25,-2.238281 -2.03907,-2.238282 -2.03907,-6.140625 V 70.09375 q 0,-3.902344 2.02735,-6.140625 2.02734,-2.25 5.23828,-2.25 3.22266,0 5.25,2.25 2.02734,2.238281 2.02734,6.140625 v 0.761719 q 0,2.367187 -0.77343,4.148437 -0.77344,1.78125 -2.13282,2.835938 z m -3.46875,-9.996094 q 0,-2.671875 -0.97265,-4.066406 -0.97266,-1.394531 -2.74219,-1.394531 -1.75781,0 -2.73047,1.382812 -0.96094,1.371094 -0.97266,4.019532 v 0.84375 q 0,2.660156 0.97266,4.078125 0.98438,1.40625 2.75391,1.40625 1.76953,0 2.71875,-1.394532 0.96093,-1.394531 0.97265,-4.03125 z M 161.07031,79 l -0.0937,-1.300781 q -1.24219,1.535156 -3.46875,1.535156 -1.86328,0 -3.03515,-1.089844 -1.16016,-1.089844 -1.17188,-3.574219 v -8.25 h 3.38672 v 8.226563 q 0,1.054687 0.50391,1.5 0.5039,0.433594 1.28906,0.433594 1.72265,0 2.3789,-1.207032 v -8.953125 h 3.39844 V 79 Z m 5.21875,-15.960938 q 0,-0.761718 0.51563,-1.253906 0.51562,-0.503906 1.38281,-0.503906 0.86719,0 1.38281,0.503906 0.51563,0.492188 0.51563,1.253906 0,0.75 -0.51563,1.253907 -0.51562,0.492187 -1.38281,0.492187 -0.86719,0 -1.38281,-0.492187 -0.51563,-0.503907 -0.51563,-1.253907 z m 3.60938,3.28125 V 79 H 166.5 V 66.320312 Z m 7.55078,10.183594 q 0.92578,0 1.52344,-0.503906 0.59765,-0.515625 0.60937,-1.382813 h 3.1875 q -0.0234,2.015625 -1.54687,3.316407 -1.51172,1.300781 -3.71485,1.300781 -2.9414,0 -4.40625,-1.851563 -1.45312,-1.863281 -1.45312,-4.558593 v -0.328125 q 0,-2.683594 1.45312,-4.546875 1.45313,-1.863282 4.39453,-1.863282 2.33203,0 3.78516,1.335938 1.46484,1.335937 1.48828,3.621094 h -3.1875 q -0.0117,-0.925782 -0.5625,-1.570313 -0.55078,-0.65625 -1.58203,-0.65625 -1.47656,0 -1.93359,1.113281 -0.45704,1.101563 -0.45704,2.894532 0,1.464843 0.44532,2.578125 0.45703,1.101562 1.95703,1.101562 z M 192.06641,79 l -3.25782,-5.085938 -1.20703,1.207032 V 79 h -3.38672 V 60.988281 h 3.38672 v 9.972656 l 0.65625,-0.84375 3.23438,-3.796875 h 4.0664 L 190.98828,71.59375 195.96875,79 Z m 19.01562,-4.476563 q 0,-0.855468 -0.58594,-1.417968 -0.58593,-0.574219 -2.84765,-1.300782 -2.25,-0.738281 -3.89063,-1.898437 -1.72265,-1.207031 -1.72265,-3.433594 0,-2.144531 1.76953,-3.457031 1.76953,-1.3125 4.53515,-1.3125 2.83594,0 4.54688,1.488281 1.71094,1.476563 1.71094,3.773438 h -3.51563 q 0,-1.078125 -0.69141,-1.769532 -0.6914,-0.691406 -2.10937,-0.691406 -1.38281,0 -2.0625,0.585938 -0.66797,0.574218 -0.66797,1.394531 0,0.84375 0.86719,1.40625 0.86719,0.5625 2.51953,1.066406 2.80078,0.855469 4.23047,2.144531 1.4414,1.289063 1.4414,3.398438 0,2.238281 -1.6875,3.492187 -1.6875,1.242188 -4.5,1.242188 -1.69921,0 -3.28125,-0.597656 -1.58203,-0.597657 -2.60156,-1.839844 -1.01953,-1.242188 -1.01953,-3.175781 h 3.52734 q 0,1.558593 0.92579,2.191406 0.9375,0.632812 2.44921,0.632812 1.35938,0 2.00391,-0.550781 0.65625,-0.550781 0.65625,-1.371094 z m 6.75391,9.597657 q -0.65625,0 -1.5,-0.222657 v -2.566406 l 0.52734,0.01172 q 0.99609,0 1.47656,-0.328125 0.48047,-0.316406 0.72657,-1.019531 l 0.375,-0.972657 L 215,66.320312 h 3.64453 L 221,74.21875 l 2.34375,-7.898438 h 3.62109 l -5.07422,14.578125 q -0.22265,0.632813 -0.65625,1.382813 -0.43359,0.761719 -1.2539,1.300781 -0.8086,0.539063 -2.14453,0.539063 z m 16.84375,-8.636719 q 0,-0.539063 -0.50391,-0.902344 -0.49219,-0.375 -2.13281,-0.726562 -1.95703,-0.421875 -3.21094,-1.3125 -1.25391,-0.890625 -1.25391,-2.519532 0,-1.582031 1.33594,-2.753906 1.34766,-1.183594 3.71485,-1.183594 2.47265,0 3.89062,1.160157 1.41797,1.160156 1.41797,2.929687 h -3.38672 q 0,-0.726562 -0.46875,-1.207031 -0.46875,-0.480469 -1.46484,-0.480469 -0.84375,0 -1.32422,0.398438 -0.46875,0.386718 -0.46875,0.972656 0,0.539062 0.5039,0.890625 0.50391,0.351562 1.86329,0.621094 2.0625,0.410156 3.42187,1.253906 1.35938,0.84375 1.35938,2.730469 0,1.675781 -1.44141,2.777343 -1.44141,1.101563 -3.89063,1.101563 -2.66015,0 -4.0664,-1.359375 -1.40625,-1.371094 -1.40625,-2.917969 h 3.22265 q 0.0469,0.996094 0.72657,1.429688 0.6914,0.433593 1.59375,0.433593 1.96875,0 1.96875,-1.335937 z m 11.33593,3.433594 q -0.94921,0.316406 -2.03906,0.316406 -1.66406,0 -2.64844,-0.867188 Q 240.34375,77.5 240.34375,75.484375 v -6.691406 h -1.86328 v -2.472657 h 1.86328 v -3.128906 h 3.38672 v 3.128906 h 2.15625 v 2.472657 h -2.15625 v 6.339843 q 0,0.796875 0.32812,1.054688 0.32813,0.257812 0.97266,0.257812 0.51562,0 0.98437,-0.09375 z M 258.06641,76.9375 q -0.60938,0.867187 -1.85157,1.582031 -1.24218,0.714844 -3.09375,0.714844 -2.95312,0 -4.61718,-1.78125 -1.66407,-1.792969 -1.67579,-4.324219 v -0.492187 q 0,-2.871094 1.59375,-4.710938 1.60547,-1.839844 4.32422,-1.839844 2.73047,0 4.16016,1.710938 1.42969,1.710937 1.42969,4.523437 v 1.441407 h -8.07422 q 0.17578,1.230468 0.97265,1.992187 0.79688,0.75 2.09766,0.75 1.93359,0 3.05859,-1.417969 z m -5.34375,-8.121094 q -1.07813,0 -1.66407,0.726563 -0.58593,0.726562 -0.76172,1.898437 h 4.71094 v -0.257812 q -0.0234,-1.019532 -0.57422,-1.6875 -0.53906,-0.679688 -1.71093,-0.679688 z m 12.49609,0.01172 q -1.40625,0 -2.07422,1.195312 V 79 h -3.39844 V 66.320312 h 3.1875 l 0.11719,1.394532 q 1.32422,-1.628907 3.63281,-1.628907 2.44922,0 3.36328,1.933594 1.30079,-1.933594 3.8086,-1.933594 1.82812,0 2.9414,1.078125 1.11329,1.078125 1.125,3.703125 V 79 h -3.39843 v -8.085938 q 0,-1.265625 -0.51563,-1.675781 -0.5039,-0.410156 -1.38281,-0.410156 -1.5,0 -2.09766,1.417969 V 79 h -3.38672 v -8.0625 q 0,-1.253906 -0.51562,-1.675781 -0.51563,-0.433594 -1.40625,-0.433594 z"
       id="text16"
       style="font-size:24px;letter-spacing:-0.5"
       aria-label="Quick System" />
    <path
       d="m 136.77344,100.54297 q 0,-2.765626 1.57031,-4.60547 1.57031,-1.851563 4.42969,-1.851563 2.89453,0 4.45312,1.851563 1.5586,1.839844 1.5586,4.60547 v 0.24609 q 0,2.76563 -1.5586,4.60547 -1.55859,1.83985 -4.42969,1.83985 -2.84765,0 -4.41796,-1.79297 -1.5586,-1.79297 -1.60547,-4.5 z m 3.39843,0.24609 q 0,1.54688 0.58594,2.63672 0.59766,1.07813 2.03906,1.07813 1.41797,0 2.00391,-1.07813 0.59766,-1.07812 0.59766,-2.88281 0,-1.51172 -0.59766,-2.613283 -0.58594,-1.113281 -2.02734,-1.113281 -1.42969,0 -2.01563,1.101563 -0.58594,1.101562 -0.58594,2.871091 z m 15.67188,-3.960935 q -1.44141,0 -2.14453,1.21875 V 107 H 150.3125 V 94.320312 h 3.17578 l 0.11719,1.453125 q 1.35937,-1.6875 3.64453,-1.6875 1.79297,0 2.89453,1.066407 1.10156,1.066406 1.11328,3.714843 V 107 h -3.39844 v -8.085938 q 0,-1.21875 -0.52734,-1.652343 -0.51562,-0.433594 -1.48828,-0.433594 z m 23.05859,4.488285 h 3.51563 q -0.17578,2.60156 -1.95703,4.26562 -1.76953,1.65235 -4.91016,1.65235 -3.28125,0 -5.16797,-2.20313 -1.88672,-2.21484 -1.88672,-6 v -1.113281 q 0,-3.785157 1.9336,-6 1.93359,-2.226563 5.15625,-2.226563 3.19922,0 4.89843,1.710938 1.69922,1.699218 1.94532,4.324218 h -3.51563 q -0.11719,-1.523437 -0.85547,-2.332031 -0.72656,-0.820312 -2.47265,-0.820312 -3.42188,0 -3.51563,5.050781 v 1.40625 q 0,2.64844 0.79688,3.98438 0.80859,1.33593 2.68359,1.33593 1.66406,0 2.4375,-0.75 0.78516,-0.76172 0.91406,-2.28515 z m 10.5625,-4.488285 q -1.47656,0 -2.14453,1.136719 V 107 h -3.38672 V 89 h 3.38672 v 6.691406 q 1.32422,-1.605469 3.38672,-1.605469 1.86328,0 3.01172,1.101563 1.16016,1.101562 1.17187,3.761719 V 107 h -3.39843 v -8.015625 q 0,-1.230469 -0.52735,-1.6875 -0.52734,-0.46875 -1.5,-0.46875 z m 7.45703,-5.789063 q 0,-0.761718 0.51563,-1.253906 0.51562,-0.503906 1.38281,-0.503906 0.86719,0 1.38281,0.503906 0.51563,0.492188 0.51563,1.253906 0,0.75 -0.51563,1.253907 -0.51562,0.492187 -1.38281,0.492187 -0.86719,0 -1.38281,-0.492187 -0.51563,-0.503907 -0.51563,-1.253907 z m 3.60938,3.28125 V 107 h -3.39844 V 94.320312 Z m 8.78125,12.914068 q -1.89844,0 -3.10547,-1.34766 v 5.98828 h -3.39844 V 94.320312 h 3.15235 l 0.1289,1.230469 q 1.20703,-1.464844 3.1875,-1.464844 2.41407,0 3.67969,1.769532 1.27734,1.769531 1.27734,4.664061 v 0.2461 q 0,2.76562 -1.27734,4.61718 -1.26562,1.85157 -3.64453,1.85157 z m -0.91406,-10.406255 q -1.58203,0 -2.19141,1.230469 V 103.25 q 0.63281,1.25391 2.21484,1.25391 1.32422,0 1.875,-1.08985 0.55079,-1.10156 0.55079,-2.89453 0,-1.570311 -0.57422,-2.624999 -0.5625,-1.066406 -1.875,-1.066406 z m 21.98047,5.695315 q 0,-0.85547 -0.58594,-1.41797 -0.58594,-0.57422 -2.84766,-1.300783 -2.25,-0.738281 -3.89062,-1.898437 -1.72266,-1.207031 -1.72266,-3.433594 0,-2.144531 1.76953,-3.457031 1.76953,-1.3125 4.53516,-1.3125 2.83594,0 4.54687,1.488281 1.71094,1.476563 1.71094,3.773438 h -3.51562 q 0,-1.078125 -0.69141,-1.769532 -0.69141,-0.691406 -2.10938,-0.691406 -1.38281,0 -2.0625,0.585938 -0.66796,0.574218 -0.66796,1.394531 0,0.84375 0.86718,1.40625 0.86719,0.5625 2.51953,1.066406 2.80079,0.855469 4.23047,2.144531 1.44141,1.289068 1.44141,3.398438 0,2.23828 -1.6875,3.49219 -1.6875,1.24219 -4.5,1.24219 -1.69922,0 -3.28125,-0.59766 -1.58203,-0.59766 -2.60156,-1.83984 -1.01953,-1.24219 -1.01953,-3.17579 h 3.52734 q 0,1.5586 0.92578,2.19141 0.9375,0.63281 2.44922,0.63281 1.35937,0 2.00391,-0.55078 0.65625,-0.55078 0.65625,-1.37109 z m 11.52343,4.39453 q -0.94922,0.31641 -2.03906,0.31641 -1.66406,0 -2.64844,-0.86719 -0.98437,-0.86719 -0.98437,-2.88281 v -6.691411 h -1.86328 v -2.472657 h 1.86328 v -3.128906 h 3.38672 v 3.128906 h 2.15625 v 2.472657 h -2.15625 v 6.339841 q 0,0.79688 0.32812,1.05469 0.32813,0.25781 0.97266,0.25781 0.51562,0 0.98437,-0.0937 z m 8.95703,0.082 -0.0937,-1.30078 q -1.24218,1.53516 -3.46875,1.53516 -1.86328,0 -3.03515,-1.08985 -1.16016,-1.08984 -1.17188,-3.57422 v -8.249998 h 3.38672 v 8.226568 q 0,1.05468 0.50391,1.5 0.5039,0.43359 1.28906,0.43359 1.72266,0 2.37891,-1.20703 v -8.953128 h 3.39843 V 107 Z m 13.08204,0 -0.16407,-1.34766 q -1.2539,1.58204 -3.24609,1.58204 -2.35547,0 -3.65625,-1.82813 -1.30078,-1.82812 -1.30078,-4.59375 v -0.24609 q 0,-2.894535 1.30078,-4.687504 1.30078,-1.792969 3.67969,-1.792969 1.85156,0 3.04687,1.371094 V 89 H 267 v 18 z m -4.96875,-6.1875 q 0,1.52344 0.53906,2.60156 0.53906,1.06641 1.875,1.06641 1.54687,0 2.21484,-1.3125 v -5.027345 q -0.64453,-1.3125 -2.1914,-1.3125 -1.32422,0 -1.88672,1.078125 -0.55078,1.078125 -0.55078,2.90625 z m 10.14062,-9.773438 q 0,-0.761718 0.51563,-1.253906 0.51562,-0.503906 1.38281,-0.503906 0.86719,0 1.38281,0.503906 0.51563,0.492188 0.51563,1.253906 0,0.75 -0.51563,1.253907 -0.51562,0.492187 -1.38281,0.492187 -0.86719,0 -1.38281,-0.492187 -0.51563,-0.503907 -0.51563,-1.253907 z m 3.60938,3.28125 V 107 h -3.39844 V 94.320312 Z m 1.75,6.222658 q 0,-2.765626 1.57031,-4.60547 1.57031,-1.851563 4.42969,-1.851563 2.89453,0 4.45312,1.851563 1.55859,1.839844 1.55859,4.60547 v 0.24609 q 0,2.76563 -1.55859,4.60547 -1.55859,1.83985 -4.42969,1.83985 -2.84765,0 -4.41797,-1.79297 -1.55859,-1.79297 -1.60546,-4.5 z m 3.39843,0.24609 q 0,1.54688 0.58594,2.63672 0.59766,1.07813 2.03906,1.07813 1.41797,0 2.00391,-1.07813 0.59766,-1.07812 0.59766,-2.88281 0,-1.51172 -0.59766,-2.613283 -0.58594,-1.113281 -2.02734,-1.113281 -1.42969,0 -2.01563,1.101563 -0.58594,1.101562 -0.58594,2.871091 z"
       id="text17"
       style="font-size:24px;letter-spacing:-0.5"
       aria-label="on Chip Studio" />
  </g>
</svg>
