<?xml version="1.0" encoding="UTF-8" standalone="no"?>
<svg
   height="24"
   viewBox="0 0 24 24"
   width="24"
   version="1.1"
   id="svg3"
   sodipodi:docname="applications-prc.svg"
   inkscape:version="1.4.2 (ebf0e940d0, 2025-05-08)"
   xmlns:inkscape="http://www.inkscape.org/namespaces/inkscape"
   xmlns:sodipodi="http://sodipodi.sourceforge.net/DTD/sodipodi-0.dtd"
   xmlns="http://www.w3.org/2000/svg"
   xmlns:svg="http://www.w3.org/2000/svg">
  <defs
     id="defs3" />
  <sodipodi:namedview
     id="namedview3"
     pagecolor="#ffffff"
     bordercolor="#666666"
     borderopacity="1.0"
     inkscape:showpageshadow="2"
     inkscape:pageopacity="0.0"
     inkscape:pagecheckerboard="0"
     inkscape:deskcolor="#d1d1d1"
     inkscape:zoom="32.958333"
     inkscape:cx="12"
     inkscape:cy="12"
     inkscape:window-width="1280"
     inkscape:window-height="995"
     inkscape:window-x="26"
     inkscape:window-y="23"
     inkscape:window-maximized="0"
     inkscape:current-layer="svg3" />
  <path
     d="M0 0h24v24H0V0z"
     fill="none"
     id="path1" />
  <path
     d="m 12.07,6.01 c -3.87,0 -7,3.13 -7,7 0,3.87 3.13,7 7,7 3.87,0 7,-3.13 7,-7 0,-3.87 -3.13,-7 -7,-7 z m 1,8 h -2 v -6 h 2 z"
     opacity="0.3"
     id="path2"
     sodipodi:nodetypes="sssssccccc" />
  <path
     d="m 9.07,1.01 h 6 v 2 h -6 z m 2,7 h 2 v 6 h -2 z M 19.1,7.39 20.52,5.97 C 20.09,5.46 19.62,4.98 19.11,4.56 L 17.69,5.98 C 16.14,4.74 14.19,4 12.07,4 c -4.97,0 -9,4.03 -9,9 0,4.97 4.02,9 9,9 4.98,0 9,-4.03 9,-9 0,-2.11 -0.74,-4.07 -1.97,-5.61 z m -7.03,12.62 c -3.87,0 -7,-3.13 -7,-7 0,-3.87 3.13,-7 7,-7 3.87,0 7,3.13 7,7 0,3.87 -3.13,7 -7,7 z"
     id="path3"
     sodipodi:nodetypes="ccccccccccccccsssscsssss"
     style="fill:#fffafa;fill-opacity:1" />
</svg>
